PathFileType	4	(X/Y/Z)	/Users/itak/Documents/Research/Walk-IL/dataset/trc/00519_00183.trc
DataRate	CameraRate	NumFrames	NumMarkers	Units	OrigDataRate	OrigDataStartFrame	OrigNumFrames
100.000000	100.000000	4	53	mm	100.000000	349	559
Frame#	Time	RPSI			LPSI			L3			STRN			T10			C7			CLAV			RBAK			LBAK			LSHO			LUPA			LAEL			LAOL			LWTS			LWPS			LFRA			LIFD			LHPS			LHTS			RSHO			RUPA			RAEL			RAOL			RWTS			RWPS			RFRA			RIFD			RHTS			RHPS			RBHD			LFHD			RFHD			LBHD			LHIP			RHIP			RASI			LASI			LKNE			LTHI			LANK			LTIP			LTOE			LMT1			LMT5			LHEE			RKNE			RTHI			RANK			RTIP			RTOE			RMT1			RMT5			RHEE			
		X1	Y1	Z1	X2	Y2	Z2	X3	Y3	Z3	X4	Y4	Z4	X5	Y5	Z5	X6	Y6	Z6	X7	Y7	Z7	X8	Y8	Z8	X9	Y9	Z9	X10	Y10	Z10	X11	Y11	Z11	X12	Y12	Z12	X13	Y13	Z13	X14	Y14	Z14	X15	Y15	Z15	X16	Y16	Z16	X17	Y17	Z17	X18	Y18	Z18	X19	Y19	Z19	X20	Y20	Z20	X21	Y21	Z21	X22	Y22	Z22	X23	Y23	Z23	X24	Y24	Z24	X25	Y25	Z25	X26	Y26	Z26	X27	Y27	Z27	X28	Y28	Z28	X29	Y29	Z29	X30	Y30	Z30	X31	Y31	Z31	X32	Y32	Z32	X33	Y33	Z33	X34	Y34	Z34	X35	Y35	Z35	X36	Y36	Z36	X37	Y37	Z37	X38	Y38	Z38	X39	Y39	Z39	X40	Y40	Z40	X41	Y41	Z41	X42	Y42	Z42	X43	Y43	Z43	X44	Y44	Z44	X45	Y45	Z45	X46	Y46	Z46	X47	Y47	Z47	X48	Y48	Z48	X49	Y49	Z49	X50	Y50	Z50	X51	Y51	Z51	X52	Y52	Z52	X53	Y53	Z53	

350	3.49	210.9705963134766	928.8692016601562	266.7706909179688	333.5207214355469	921.6159057617188	251.1839904785156	265.044189453125	999.1563110351562	255.6765747070312	298.6675109863281	1174.15966796875	462.2562561035156	244.7584991455078	1103.23193359375	240.31787109375	232.0037689208984	1333.481201171875	281.7189636230469	280.4113464355469	1267.033935546875	426.9368591308594	146.5643157958984	1203.14697265625	258.9752807617188	312.6898803710938	1285.2734375	233.3034057617188	404.3269958496094	1343.488159179688	301.5230407714844	467.4778137207031	1223.165283203125	269.7431945800781	514.135498046875	1017.182922363281	262.2824096679688	422.9242858886719	1001.126708984375	225.7257080078125	531.279541015625	825.0888061523438	353.3450317382812	540.2749633789062	795.1735229492188	264.3373413085938	530.978515625	932.4199829101562	274.488525390625	541.4103393554688	667.129638671875	347.5464782714844	552.6266479492188	742.6353149414062	284.8494873046875	560.2647094726562	749.6122436523438	349.4049377441406	104.681282043457	1321.593994140625	373.6071472167969	51.50124740600586	1248.246826171875	377.6318664550781	26.58406448364258	985.42626953125	443.4779052734375	45.20302581787109	956.88525390625	386.0285034179688	111.5127182006836	830.9732055664062	580.8934936523438	49.94055938720703	781.0672607421875	535.986083984375	26.36715888977051	933.2333984375	462.2957763671875	121.1755142211914	680.6676635742188	637.9518432617188	102.0004730224609	749.4390869140625	630.90625	63.98695755004883	723.7308349609375	578.5282592773438	150.187255859375	1483.017822265625	378.0072937011719	327.8432922363281	1556.131469726562	432.5711975097656	213.2204284667969	1540.648803710938	485.7506103515625	287.5818786621094	1498.729736328125	298.1328125	478.258544921875	864.3997802734375	353.0237121582031	98.47261047363281	839.6534423828125	392.1578063964844	174.3184814453125	891.9381713867188	481.8956604003906	413.142822265625	910.2130737304688	444.5052490234375	493.8158264160156	494.9869995117188	549.84423828125	495.9675598144531	634.7448120117188	475.9531860351562	524.4244384765625	52.66363143920898	585.3574829101562	512.9056396484375	348.9201965332031	561.34033203125	532.5850219726562	106.2283630371094	778.2993774414062	476.4134826660156	83.81962585449219	726.3445434570312	569.5722045898438	74.76364135742188	679.7173461914062	451.8677978515625	37.80990600585938	566.87841796875	186.1686401367188	456.0850830078125	363.4499206542969	118.2119445800781	707.98583984375	417.8276977539062	243.7049102783203	51.27112197875977	206.0148773193359	223.9329528808594	314.3890686035156	334.9495544433594	330.0507202148438	35.16845321655273	392.0169677734375	351.5448913574219	41.78042602539062	318.0671997070312	254.858642578125	42.66215515136719	318.2265625	279.5596618652344	50.19062805175781	143.2938690185547	
351	3.5	214.5377044677734	927.8442993164062	273.4342041015625	337.2527770996094	920.3942260742188	258.9770812988281	268.8710327148438	997.8651733398438	262.5838623046875	300.6715698242188	1172.809448242188	469.5435180664062	248.6934204101562	1101.866943359375	247.03955078125	235.5057983398438	1332.130004882812	288.3600769042969	282.7421569824219	1265.71533203125	434.098876953125	150.270751953125	1201.791381835938	264.8367309570312	316.6502075195312	1283.923583984375	240.7149810791016	407.6575317382812	1342.201049804688	309.6878662109375	471.192138671875	1221.840209960938	278.6284790039062	518.0059814453125	1015.873779296875	271.7302856445312	427.1460876464844	999.7770385742188	234.3238067626953	534.1690063476562	823.4741821289062	362.523681640625	544.0177612304688	793.7924194335938	273.5	534.7321166992188	931.0067138671875	283.9539794921875	544.1934204101562	665.5173950195312	356.3482360839844	556.1026000976562	741.1778564453125	293.9745178222656	563.0890502929688	747.936767578125	358.6005859375	107.3574523925781	1320.166870117188	379.1503601074219	54.33583831787109	1246.708618164062	383.1041870117188	29.85006713867188	984.2816162109375	450.86376953125	48.31999206542969	955.341064453125	393.5845031738281	115.1547927856445	830.2256469726562	588.8316040039062	53.46349716186523	780.1485595703125	544.2674560546875	29.71104049682617	932.1133422851562	470.0025329589844	125.1505279541016	680.0120849609375	646.177001953125	105.9190216064453	748.750244140625	639.04638671875	67.61682891845703	722.9600830078125	586.87744140625	153.0542755126953	1481.713500976562	384.7507019042969	330.6683654785156	1554.749755859375	439.5250244140625	215.9742889404297	1539.309936523438	492.6256713867188	290.5320434570312	1497.37646484375	305.05029296875	480.9898986816406	862.716064453125	361.8171997070312	100.890998840332	838.736572265625	397.7749328613281	176.4110717773438	890.7011108398438	488.21630859375	415.4385070800781	908.758544921875	452.8952026367188	494.5868530273438	493.6163024902344	558.5910034179688	497.9324645996094	632.870849609375	484.0133666992188	526.207763671875	52.55392837524414	608.9660034179688	513.88427734375	348.0741271972656	575.2919311523438	527.410400390625	111.3256683349609	800.4434814453125	473.1850280761719	87.50109100341797	747.1469116210938	567.9254150390625	77.20364379882812	704.274658203125	454.4886169433594	37.20932006835938	588.1781005859375	188.1257476806641	455.2781982421875	367.8620300292969	120.3726043701172	706.9650268554688	423.1825256347656	243.921142578125	51.67409133911133	206.0898590087891	225.3993988037109	313.6200866699219	338.147216796875	329.9939880371094	35.11240768432617	392.0955505371094	351.5980529785156	41.81511306762695	318.1482849121094	254.9113159179688	42.73430252075195	318.2974548339844	279.64453125	50.98994445800781	143.4010009765625	
352	3.51	218.0933074951172	926.9072265625	280.2341003417969	340.9640502929688	919.2677612304688	266.8713989257812	272.6434631347656	996.6378784179688	269.590576171875	302.7338256835938	1171.50634765625	476.9028625488281	252.5653991699219	1100.543701171875	253.8872375488281	238.9744415283203	1330.82666015625	295.1142578125	285.1337280273438	1264.437744140625	441.3317565917969	153.9513854980469	1200.491577148438	270.8599243164062	320.5785827636719	1282.591430664062	248.1983947753906	410.9883117675781	1340.940795898438	317.8732604980469	474.8773193359375	1220.528564453125	287.5162658691406	521.8272094726562	1014.57763671875	281.2331237792969	431.3124389648438	998.4234008789062	243.0045623779297	537.0895385742188	821.9257202148438	371.8320617675781	547.7450561523438	792.437255859375	282.8053283691406	538.4568481445312	929.6231079101562	293.4976806640625	547.0494384765625	663.968505859375	365.3451232910156	559.5895385742188	739.7526245117188	303.2549133300781	565.9259643554688	746.3484497070312	367.9419860839844	110.0532608032227	1318.757690429688	384.8008728027344	57.20870971679688	1245.238891601562	388.7158203125	33.08949279785156	983.1593017578125	458.0972595214844	51.47394180297852	953.8772583007812	400.9757385253906	118.673454284668	829.4129638671875	596.5538330078125	56.91253280639648	779.1915893554688	552.2457885742188	33.01598358154297	931.011474609375	477.4949340820312	128.9454956054688	679.2614135742188	654.117431640625	109.6700210571289	747.9752197265625	646.9212036132812	71.20963287353516	722.1129150390625	594.8746337890625	155.9735412597656	1480.461791992188	391.506591796875	333.517822265625	1553.42822265625	446.5157775878906	218.7477416992188	1538.02978515625	499.5188598632812	293.5234985351562	1496.064086914062	311.9968566894531	483.7452087402344	861.1063842773438	370.6393737792969	103.3329544067383	837.858154296875	403.5096435546875	178.5637664794922	889.4814453125	494.6780395507812	417.7318115234375	907.3408203125	461.3247680664062	495.233642578125	492.3339538574219	567.4284057617188	499.7701721191406	631.066162109375	492.1604614257812	527.548095703125	52.74966049194336	631.2261352539062	514.6127319335938	347.4028015136719	588.994873046875	521.4090576171875	116.0321731567383	821.0792236328125	469.3123474121094	90.89810180664062	766.3392944335938	565.61572265625	79.65433502197266	727.4985961914062	456.8013610839844	36.91792678833008	607.9447631835938	190.0698852539062	454.4651489257812	372.5199584960938	122.553352355957	705.9856567382812	428.6210632324219	244.0396423339844	52.17325973510742	206.2172698974609	226.8628387451172	312.8721008300781	341.514404296875	329.9490966796875	35.06618499755859	392.153564453125	351.6293640136719	41.89574813842773	318.2209167480469	254.9356689453125	42.80231094360352	318.406494140625	279.617431640625	51.95820617675781	143.5475921630859	
353	3.52	221.6483459472656	926.066162109375	287.1706848144531	344.6742858886719	918.2383422851562	274.8670654296875	276.3600158691406	995.4755249023438	276.7220153808594	304.8541870117188	1170.267944335938	484.3465270996094	256.3753662109375	1099.283203125	260.8697509765625	242.4173431396484	1329.586669921875	301.9909057617188	287.5786743164062	1263.222045898438	448.644775390625	157.6140594482422	1199.261352539062	277.0458679199219	324.4781188964844	1281.297729492188	255.7554779052734	414.3260803222656	1339.721313476562	326.0915222167969	478.5350952148438	1219.244262695312	296.4115905761719	525.5955200195312	1013.309204101562	290.7767944335938	435.4197387695312	997.08447265625	251.7520294189453	540.0423583984375	820.4652709960938	381.2685241699219	551.4437255859375	791.1209106445312	292.2504272460938	542.1401977539062	928.2818603515625	303.1053161621094	549.9722900390625	662.5023803710938	374.5537414550781	563.0769653320312	738.3732299804688	312.6947937011719	568.78515625	744.8692016601562	377.4370727539062	112.7822494506836	1317.389282226562	390.5738830566406	60.12270355224609	1243.857055664062	394.4746398925781	36.30063247680664	982.0663452148438	465.1715393066406	54.67453002929688	952.5089111328125	408.2021789550781	122.060188293457	828.5481567382812	604.0581665039062	60.2786865234375	778.2091064453125	559.9142456054688	36.27680587768555	929.9351196289062	484.7659606933594	132.5421752929688	678.4293823242188	661.7728881835938	113.2336807250977	747.130126953125	654.5279541015625	74.76299285888672	721.1973876953125	602.513916015625	158.9438171386719	1479.278076171875	398.2808227539062	336.3927917480469	1552.188232421875	453.5415954589844	221.5405120849609	1536.8359375	506.4268188476562	296.5540771484375	1494.803100585938	318.9754943847656	486.5160217285156	859.5911254882812	379.511474609375	105.7932434082031	837.0369262695312	409.3590393066406	180.7348937988281	888.2949829101562	501.2728576660156	420.017333984375	905.981201171875	469.8065795898438	495.7332153320312	491.1538391113281	576.3780517578125	501.4663391113281	629.3743286132812	500.4710388183594	528.4475708007812	53.13372421264648	652.0523681640625	515.0903930664062	346.8798828125	602.3900146484375	514.7787475585938	120.2059860229492	840.1640014648438	464.9472351074219	93.87608337402344	783.9319458007812	562.7440185546875	81.97777557373047	749.2759399414062	458.7711181640625	36.82349014282227	626.18408203125	191.9889221191406	453.6676330566406	377.3957824707031	124.7448959350586	705.0672607421875	434.1382751464844	244.1103973388672	52.79935073852539	206.4019165039062	228.3190612792969	312.1737976074219	345.022216796875	329.9237060546875	35.02289962768555	392.2041015625	351.6500854492188	42.02777481079102	318.307861328125	254.9589538574219	42.88754653930664	318.5536193847656	279.5424499511719	53.1215934753418	143.7473907470703	
